<?xml version="1.0" encoding="utf-8"?>
<svg width="18" height="18" viewBox="0 0 18 18" fill="none" xmlns="http://www.w3.org/2000/svg">
<path d="M7.67676 1.59766C7.28613 1.98828 7.3252 2.57422 7.67676 2.96484L12.4033 7.41797H1.19238C0.645508 7.41797 0.254883 7.84766 0.254883 8.35547V9.60547C0.254883 10.1523 0.645508 10.543 1.19238 10.543H12.4033L7.67676 15.0352C7.3252 15.4258 7.3252 16.0117 7.67676 16.4023L8.53613 17.2617C8.92676 17.6133 9.5127 17.6133 9.86426 17.2617L17.4814 9.64453C17.833 9.29297 17.833 8.70703 17.4814 8.31641L9.86426 0.738281C9.5127 0.386719 8.92676 0.386719 8.53613 0.738281L7.67676 1.59766Z" fill="black"/>
</svg>
