<?xml version="1.0" encoding="utf-8"?>
<svg width="18" height="18" viewBox="0 0 18 18" fill="none" xmlns="http://www.w3.org/2000/svg">
<path d="M10.2988 16.4023C10.6895 16.0117 10.6504 15.4258 10.2988 15.0352L5.57227 10.543H16.8223C17.3301 10.543 17.7598 10.1523 17.7598 9.60547V8.35547C17.7598 7.84766 17.3301 7.41797 16.8223 7.41797H5.57227L10.2988 2.96484C10.6504 2.57422 10.6895 1.98828 10.2988 1.59766L9.43945 0.738281C9.08789 0.386719 8.46289 0.386719 8.11133 0.738281L0.533203 8.35547C0.142578 8.70703 0.142578 9.29297 0.533203 9.64453L8.11133 17.2617C8.46289 17.6133 9.04883 17.6133 9.43945 17.2617L10.2988 16.4023Z" fill="black"/>
</svg>
