<?xml version="1.0" encoding="utf-8"?>
<svg width="22" height="22" viewBox="0 0 22 22" fill="none" xmlns="http://www.w3.org/2000/svg">
<path d="M12.5586 19.8828C13.0273 19.4141 12.9805 18.7109 12.5586 18.2422L6.88672 12.8516H20.3867C20.9961 12.8516 21.5117 12.3828 21.5117 11.7266V10.2266C21.5117 9.61719 20.9961 9.10156 20.3867 9.10156H6.88672L12.5586 3.75781C12.9805 3.28906 13.0273 2.58594 12.5586 2.11719L11.5273 1.08594C11.1055 0.664062 10.3555 0.664062 9.93359 1.08594L0.839844 10.2266C0.371094 10.6484 0.371094 11.3516 0.839844 11.7734L9.93359 20.9141C10.3555 21.3359 11.0586 21.3359 11.5273 20.9141L12.5586 19.8828Z" fill="black"/>
</svg>
