<?xml version="1.0" encoding="utf-8"?>
<svg width="22" height="22" viewBox="0 0 22 22" fill="none" xmlns="http://www.w3.org/2000/svg">
<path d="M9.41211 2.11719C8.94336 2.58594 8.99023 3.28906 9.41211 3.75781L15.084 9.10156H1.63086C0.974609 9.10156 0.505859 9.61719 0.505859 10.2266V11.7266C0.505859 12.3828 0.974609 12.8516 1.63086 12.8516H15.084L9.41211 18.2422C8.99023 18.7109 8.99023 19.4141 9.41211 19.8828L10.4434 20.9141C10.9121 21.3359 11.6152 21.3359 12.0371 20.9141L21.1777 11.7734C21.5996 11.3516 21.5996 10.6484 21.1777 10.1797L12.0371 1.08594C11.6152 0.664062 10.9121 0.664062 10.4434 1.08594L9.41211 2.11719Z" fill="black"/>
</svg>
